<svg version="1.1" id="Camada_1" xmlns="http://www.w3.org/2000/svg" x="0" y="0" viewBox="0 0 2500 540.5" style="enable-background:new 0 0 2500 540.5" xml:space="preserve"><style>.st0{fill:#171321}.st2{fill:#fc6d26}</style><g id="LOGO"><path class="st0" d="M1009.3 203.7h82.1c-13.7-87.3-89.3-148.1-187.6-148.1-116.4 0-203.7 85.5-203.7 228.8 0 140.7 83.4 228 206.1 228 110.1 0 188.9-70.8 188.9-185.4v-53.4H914.7v63h102.5c-1.3 63.4-43.6 103.6-110.5 103.6-74.5 0-125.5-55.8-125.5-156.5 0-100.1 51.9-155.7 123.7-155.7 53.6-.1 90.3 28.5 104.4 75.7zM1149.4 506.3h78.6V173h-78.6v333.3zM1189 120c25 0 45.4-19.1 45.4-42.6S1214 34.7 1189 34.7s-45.6 19.1-45.6 42.8 20.3 42.6 45.4 42.6h.2zM1463.3 173h-65.8V92.9h-78.6V173h-47.3v60.8h47.3v185.4c-.4 62.7 45.2 93.7 104.2 91.9 15.7-.3 31.3-2.9 46.3-7.8l-13.3-61.5c-7.5 1.9-15.2 3-23 3.1-19.8 0-35.6-7-35.6-38.7V233.6h65.8V173zM1524.1 506.3h276.4v-67.5h-195.8V61.6h-80.6v444.7zM1951.1 513.1c52.3 0 83.6-24.5 97.9-52.5h2.6v45.8h75.7V283.1c0-88.1-71.9-114.6-135.5-114.6-70.1 0-124 31.2-141.3 92l73.4 10.5c7.8-22.8 29.9-42.3 68.5-42.3 36.5 0 56.5 18.7 56.5 51.5v1.3c0 22.6-23.7 23.7-82.5 29.9-64.7 7-126.6 26.3-126.6 101.4-.3 65.5 47.7 100.3 111.3 100.3zm25.8-57.7c-32.8 0-56.3-15-56.3-43.9 0-30.2 26.3-42.8 61.3-47.8 20.6-2.8 61.9-8 72.1-16.3v39.3c.2 37-29.8 68.5-77.1 68.5v.2zM2185.2 506.3h77.3v-52.5h4.5c12.4 24.3 38.2 58.4 95.6 58.4 78.6 0 137.4-62.3 137.4-172.2 0-111.2-60.6-171.5-137.7-171.5-58.8 0-83.4 35.4-95.4 59.5h-3.3V61.6h-78.5v444.7zm77-166.7c0-64.9 27.8-106.6 78.4-106.6 52.3 0 79.3 44.5 79.3 106.6s-27.4 108.1-79.3 108.1c-50.1 0-78.4-43.4-78.4-108.1z"/><path d="m552 214-.8-2-76.4-199.3c-1.5-3.9-4.3-7.2-7.9-9.5-9.4-6-21.9-3.3-27.9 6.1-1.1 1.7-1.9 3.5-2.4 5.4L385 172.6H176.3L124.7 14.7c-3-10.7-14.2-17-25-13.9-1.9.5-3.7 1.3-5.3 2.4-3.6 2.2-6.3 5.6-7.9 9.5L10.2 212l-.8 2c-22.6 59-3.4 125.8 47 163.9l.3.2.6.5 116.2 87.1 57.7 43.6 35 26.5c8.4 6.4 20.1 6.4 28.5 0l35-26.5 57.7-43.6 117-87.6.3-.3c50.6-38 69.8-104.8 47.3-163.8z" style="fill:#e24329"/><path class="st2" d="m552 214-.8-2c-37.2 7.6-72.3 23.4-102.7 46.2L280.8 385l106.8 80.7 117-87.6.3-.3c50.5-38 69.6-104.8 47.1-163.8z"/><path d="m173.6 465.7 57.7 43.6 35 26.5c8.4 6.4 20.1 6.4 28.5 0l35-26.5 57.7-43.6L280.7 385l-107.1 80.7z" style="fill:#fca326"/><path class="st2" d="M112.8 258.1C82.4 235.4 47.4 219.6 10.2 212l-.8 2c-22.6 59-3.4 125.8 47 163.9l.3.2.6.5 116.2 87.1 107-80.7-167.7-126.9z"/></g></svg>