<svg version="1.1" id="Layer_1" xmlns="http://www.w3.org/2000/svg" x="0" y="0" viewBox="0 0 1613 3000" style="enable-background:new 0 0 1613 3000" xml:space="preserve"><style>.st0{fill:#5382a1}.st1{fill:#f8981d}</style><path class="st0" d="M1545.1 2365.7h-11.3v-6.3h30.4v6.3H1553v31.5h-7.9v-31.5zm60.6 1.7h-.2l-11.2 29.9h-5.1l-11.1-29.9h-.1v29.9h-7.4v-37.9h11l10.3 26.8 10.3-26.8h10.9v37.9h-7.3l-.1-29.9zM533.3 1591.4s-78.6 45.7 56 61.2c163.1 18.6 246.4 15.9 426.1-18.1 0 0 47.2 29.6 113.2 55.3-402.9 172.6-911.7-10-595.3-98.4M484.1 1366.1s-88.2 65.3 46.5 79.2c174.2 18 311.7 19.4 549.8-26.4 0 0 32.9 33.4 84.7 51.6-487.1 142.4-1029.6 11.3-681-104.4"/><path class="st1" d="M899 983.9c99.3 114.3-26 217.1-26 217.1s252-130.1 136.3-293c-108.1-151.9-191-227.4 257.8-487.7-.1 0-704.5 175.9-368.1 563.6"/><path class="st0" d="M1431.8 1758s58.2 47.9-64.1 85c-232.5 70.4-967.8 91.7-1172 2.8-73.4-31.9 64.3-76.3 107.6-85.6 45.2-9.8 71-8 71-8-81.7-57.5-527.8 112.9-226.6 161.8 821.3 133.3 1497.1-59.9 1284.1-156M571.1 1132.6s-374 88.8-132.4 121.1c102 13.7 305.3 10.6 494.7-5.3 154.8-13.1 310.2-40.8 310.2-40.8s-54.6 23.4-94.1 50.3c-379.8 99.9-1113.4 53.4-902.2-48.8 178.6-86.3 323.8-76.5 323.8-76.5M1242 1507.6c386.1-200.6 207.6-393.4 83-367.4-30.5 6.4-44.2 11.9-44.2 11.9s11.3-17.8 33-25.4c246.5-86.7 436 255.6-79.6 391.1 0 0 6-5.4 7.8-10.2"/><path class="st1" d="M1009.2 0S1223 213.9 806.4 542.8c-334.1 263.8-76.2 414.2-.1 586.1-195-175.9-338.1-330.8-242.1-475 140.9-211.6 531.3-314.2 445-653.9"/><path class="st0" d="M609 2051.3c370.6 23.7 939.6-13.2 953.1-188.5 0 0-25.9 66.5-306.3 119.3-316.3 59.5-706.4 52.6-937.8 14.4.1-.1 47.5 39.1 291 54.8M548.3 2721.3c-35 30.3-71.9 47.3-105 47.3-47.3 0-72.8-28.4-72.8-73.8 0-49.2 27.4-85.2 137.2-85.2h40.6v111.7m96.5 108.8v-336.9c0-86.1-49.1-142.8-167.4-142.8-69.1 0-129.6 17.1-178.8 38.8l14.2 59.6c38.7-14.2 88.9-27.4 138.1-27.4 68.2 0 97.5 27.4 97.5 84.2v42.6h-34c-165.6 0-240.4 64.3-240.4 160.8 0 83.3 49.2 130.6 142 130.6 59.6 0 104.1-24.6 145.7-60.6l7.5 51.1h75.6zM966.7 2830.1H846.4l-144.8-471.2h105.1l89.8 289.5 20 87.1c45.5-125.9 77.6-253.6 93.7-376.6h102.2c-27.4 155.2-76.7 325.5-145.7 471.2M1428.2 2721.3c-35 30.3-72 47.3-105.1 47.3-47.2 0-72.8-28.4-72.8-73.8 0-49.2 27.4-85.2 137.3-85.2h40.7v111.7m96.4 108.8v-336.9c0-86.1-49.2-142.8-167.4-142.8-69.1 0-129.7 17.1-178.8 38.8l14.2 59.6c38.7-14.2 89-27.4 138.1-27.4 68.1 0 97.5 27.4 97.5 84.2v42.6h-34.1c-165.7 0-240.4 64.3-240.4 160.8 0 83.3 49.2 130.6 141.9 130.6 59.6 0 104.1-24.6 145.8-60.6l7.6 51.1h75.6zM168.2 2910.1c-27.5 40.1-71.9 71.9-120.5 89.9L0 2944c37-19 68.8-49.7 83.5-78.2 12.8-25.4 18-58.2 18-136.5v-538H204v530.6c0 104.7-8.4 147-35.8 188.2"/></svg>